<?xml version="1.0" encoding="UTF-8" standalone="no"?> <svg xmlns="http://www.w3.org/2000/svg" viewBox="0 0 64 64"><g id="coding-cloud-web_design-programing-server" data-name="coding-cloud-web design-programing-server"><path d="M24,21H23a1,1,0,0,0,0,2h1a1,1,0,0,0,0-2Z"/><path d="M28,21H27a1,1,0,0,0,0,2h1a1,1,0,0,0,0-2Z"/><path d="M32,21H31a1,1,0,0,0,0,2h1a1,1,0,0,0,0-2Z"/><path d="M39.555,34.168l-3-2a1,1,0,0,0-1.11,1.664L37.2,35l-1.752,1.168a1,1,0,0,0,1.11,1.664l3-2a1,1,0,0,0,0-1.664Z"/><path d="M28.832,32.445a1,1,0,0,0-1.387-.277l-3,2a1,1,0,0,0,0,1.664l3,2a1,1,0,1,0,1.11-1.664L26.8,35l1.752-1.168A1,1,0,0,0,28.832,32.445Z"/><path d="M33.242,30.03a1,1,0,0,0-1.212.727l-2,8a1,1,0,0,0,.727,1.213A.976.976,0,0,0,31,40a1,1,0,0,0,.969-.757l2-8A1,1,0,0,0,33.242,30.03Z"/><path d="M50,13a12.117,12.117,0,0,0-3.41.49,15.008,15.008,0,0,0-29.18,0A12.014,12.014,0,0,0,2,25a11.951,11.951,0,0,0,4,8.93V49a3.009,3.009,0,0,0,3,3H26v4H21a3.009,3.009,0,0,0-3,3v2a1,1,0,0,0,1,1H45a1,1,0,0,0,1-1V59a3.009,3.009,0,0,0-3-3H38V52H55a3.009,3.009,0,0,0,3-3V33.92A11.983,11.983,0,0,0,50,13ZM43,58a1,1,0,0,1,1,1v1H20V59a1,1,0,0,1,1-1ZM28,56V52h8v4Zm28-7a1,1,0,0,1-1,1H9a1,1,0,0,1-1-1V46H56ZM43,26V44H21V26ZM21,24V21a1,1,0,0,1,1-1H42a1,1,0,0,1,1,1v3ZM51,34.95V29.41l1.29,1.3a1.014,1.014,0,0,0,1.42,0,1.008,1.008,0,0,0,0-1.42l-3-3a1.008,1.008,0,0,0-1.42,0l-3,3a1,1,0,0,0,1.42,1.42L49,29.41V36a1,1,0,0,0,1,1,11.968,11.968,0,0,0,6-1.62V44H45V21a3.009,3.009,0,0,0-3-3H22a3.009,3.009,0,0,0-3,3V44H8V35.38a11.9,11.9,0,0,0,5,1.58v3.63l-1.29-1.3a1,1,0,0,0-1.42,1.42l3,3a1.014,1.014,0,0,0,1.42,0l3-3a1,1,0,0,0-1.42-1.42L15,40.59V36a1,1,0,0,0-1-1,10,10,0,1,1,3.79-19.26,1,1,0,0,0,1.37-.77,13,13,0,0,1,25.68,0,1,1,0,0,0,1.37.77A10,10,0,1,1,51,34.95Z"/><path d="M33,47H31a1,1,0,0,0,0,2h2a1,1,0,0,0,0-2Z"/></g></svg>