<?xml version="1.0" encoding="UTF-8"?>
<!DOCTYPE svg PUBLIC "-//W3C//DTD SVG 1.1//EN" "http://www.w3.org/Graphics/SVG/1.1/DTD/svg11.dtd">
<!-- Creator: CorelDRAW -->
<svg xmlns="http://www.w3.org/2000/svg" xml:space="preserve" width="1.76666in" height="1.76666in" version="1.1" style="shape-rendering:geometricPrecision; text-rendering:geometricPrecision; image-rendering:optimizeQuality; fill-rule:evenodd; clip-rule:evenodd"
viewBox="0 0 1767 1767"
 xmlns:xlink="http://www.w3.org/1999/xlink">
 <defs>
  <style type="text/css">
   <![CDATA[
    .fil0 {fill:#000002}
   ]]>
  </style>
 </defs>
 <g id="Layer_x0020_1">
  <metadata id="CorelCorpID_0Corel-Layer"/>
  <path class="fil0" d="M1163 422c-6,0 -11,-2 -16,-7l-65 -65c-9,-9 -9,-23 0,-32l65 -66c21,-20 53,12 32,32l-49 50 49 49c14,14 4,39 -16,39zm-86 827l0 -161 -1002 0 0 480c0,20 17,36 36,36l930 0c20,0 36,-16 36,-36l0 -319zm0 -206l0 -114c0,-19 -16,-36 -36,-36l-930 0c-19,0 -36,17 -36,36l0 114 1002 0zm-1047 206l0 -320c0,-44 36,-81 81,-81l627 0c-5,-27 -2,-63 34,-63l25 0 0 -446c0,-122 100,-222 222,-222l434 0c122,0 222,100 222,222l0 446 25 0c77,0 29,175 -101,175l-476 0 0 608c0,45 -37,81 -82,81l-930 0c-45,0 -81,-36 -81,-81l0 -319zm755 -401l256 0c40,0 73,29 80,66l478 0c48,0 88,-37 92,-83l-910 0c1,6 2,11 4,17zm844 -63l0 -446c0,-97 -79,-176 -176,-176l-434 0c-97,0 -176,79 -176,176l0 446 786 0zm-332 110l-122 0c-30,0 -30,-45 0,-45l122 0c30,0 30,45 0,45zm242 -380l-606 0c-29,0 -29,-45 0,-45l606 0c29,0 29,45 0,45zm-543 683l-840 0c-29,0 -29,-45 0,-45l840 0c29,0 29,45 0,45zm0 299l-840 0c-29,0 -29,-45 0,-45l840 0c29,0 29,45 0,45zm-2 -506l-170 0c-29,0 -29,-46 0,-46l170 0c30,0 30,46 0,46zm-765 0l-71 0c-29,0 -29,-46 0,-46l71 0c29,0 29,46 0,46zm150 0l-71 0c-29,0 -29,-46 0,-46l71 0c29,0 29,46 0,46zm149 0l-70 0c-30,0 -30,-46 0,-46l70 0c30,0 30,46 0,46zm-30 407l-341 0c-29,0 -29,-46 0,-46l341 0c29,0 29,46 0,46zm499 0l-341 0c-29,0 -29,-46 0,-46l341 0c29,0 29,46 0,46zm-700 -100l-140 0c-29,0 -29,-46 0,-46l140 0c30,0 30,46 0,46zm244 0l-140 0c-29,0 -29,-46 0,-46l140 0c30,0 30,46 0,46zm456 0l-352 0c-29,0 -29,-46 0,-46l352 0c29,0 29,46 0,46zm74 -595l-137 0c-30,0 -30,-46 0,-46l137 0c29,0 29,46 0,46zm234 0l-138 0c-29,0 -29,-46 0,-46l138 0c29,0 29,46 0,46zm233 0l-137 0c-29,0 -29,-46 0,-46l137 0c30,0 30,46 0,46zm-366 -94l-238 0c-30,0 -30,-45 0,-45l238 0c29,0 29,45 0,45zm366 0l-238 0c-29,0 -29,-45 0,-45l238 0c30,0 30,45 0,45zm-320 -185c-14,0 -25,-14 -22,-28l36 -132c7,-28 51,-17 44,12l-36 131c-2,11 -12,17 -22,17zm91 -2c-20,0 -30,-25 -16,-39l49 -49 -49 -50c-21,-20 11,-52 32,-32l65 66c9,9 9,23 0,32l-65 65c-5,5 -10,7 -16,7z"/>
 </g>
</svg>
